<?xml version="1.0" encoding="UTF-8" standalone="no"?>
<!DOCTYPE svg PUBLIC "-//W3C//DTD SVG 1.1//EN" "http://www.w3.org/Graphics/SVG/1.1/DTD/svg11.dtd">
<svg width="100%" height="100%" viewBox="0 0 638 94" version="1.1" xmlns="http://www.w3.org/2000/svg" xmlns:xlink="http://www.w3.org/1999/xlink" xml:space="preserve" xmlns:serif="http://www.serif.com/" style="fill-rule:evenodd;clip-rule:evenodd;stroke-linejoin:round;stroke-miterlimit:2;">
    <g>
        <g>
            <path d="M200.7,20.6L198.5,7.6C197.8,3.4 196.2,0 194.9,0C193.6,0 192.5,3.5 192.5,7.7L192.5,11.1C192.5,15.3 189,18.8 184.8,18.8L180.7,18.8L180.7,28.2L194.2,28.2C198.5,28.2 201.4,24.8 200.7,20.6" style="fill:rgb(102,156,53);fill-rule:nonzero;"/>
            <path d="M170,9.6L127.4,9.6C127.1,9.6 126.9,9.6 126.7,9.7L126.7,7.7C126.7,3.5 125.6,-0 124.3,-0C123,-0 121.4,3.4 120.7,7.6L118.5,20.6C117.8,24.8 120.7,28.2 124.9,28.2L137.7,28.2C139,28.2 140.3,28 141.3,27.6C140.9,29.8 139,31.4 136.7,31.4L118.7,31.4C115.8,31.4 113.6,28.8 114.1,25.9L115.9,15C116.4,12.1 114.2,9.5 111.3,9.5L22.1,9.5C20.2,9.5 18.6,10.6 17.8,12.3L1,38C0.7,38.4 0.7,39 1.1,39.4L4.4,43.3C4.8,43.8 5.5,43.9 6,43.5L17.4,34.5L17.4,89.3C17.4,91.9 19.5,94 22.1,94L47.5,94C50.1,94 52.2,91.9 52.2,89.3L52.2,70.3C52.2,67.7 54.3,65.6 56.9,65.6L120.2,65.6C122.8,65.6 124.9,67.7 124.9,70.3L124.9,89.3C124.9,91.9 127,94 129.6,94L155,94C157.6,94 159.7,91.9 159.7,89.3L159.7,68.6L146.2,68.6C142,68.6 138.5,65.1 138.5,60.9L138.5,47.8C138.5,45.3 139.7,43.1 141.6,41.7L141.6,57.4C141.6,61.6 145.1,65.1 149.3,65.1L170,65.1C174.2,65.1 177.7,61.6 177.7,57.4L177.7,17.4C177.7,13.1 174.2,9.6 170,9.6" style="fill:rgb(102,156,53);fill-rule:nonzero;"/>
        </g>
        <g>
            <g>
                <path d="M217.6,12.2L246.3,12.2C259.9,12.2 269,18.8 269,31.5C269,41.9 261.9,48.1 255,50.3C257.1,52 258.6,54.4 259.8,56.9C262.7,62.8 264.6,69.2 270.7,69.2C272.2,69.2 273.5,68.7 273.5,68.7L272.1,81C272.1,81 268.4,81.9 265.2,81.9C257,81.9 252.3,78.7 247.4,67.7C245.3,62.8 242.5,54.1 238.7,54.1L234.8,54.1L234.8,81.5L217.6,81.5L217.6,12.2ZM234.9,24.7L234.9,41.7L241.1,41.7C246,41.7 251.8,40.2 251.8,32.8C251.8,26.7 247.9,24.7 243.2,24.7L234.9,24.7Z" style="fill:rgb(248,248,248);fill-rule:nonzero;"/>
                <path d="M292.2,12.2L309.6,12.2L333,81.5L315.6,81.5L311.3,68.4L288.1,68.4L283.9,81.5L268.9,81.5L292.2,12.2ZM292.2,55.7L307.1,55.7L302.4,41.1C300.8,36.2 300,29.2 300,29.2L299.6,29.2C299.6,29.2 298.6,36.3 297,41L292.2,55.7Z" style="fill:rgb(248,248,248);fill-rule:nonzero;"/>
                <path d="M333.6,12.2L352,12.2L370.2,46.6C371.7,49.6 373.8,54.8 375.4,58.9L375.8,58.9C375.6,55 375.1,49.5 375.1,45.4L375.1,12.2L389.2,12.2L389.2,81.5L371.2,81.5L352.3,47.2C350.6,44.1 348.7,39.6 347.3,35.9L346.9,35.9C347.2,39.8 347.7,44.4 347.7,48.2L347.7,81.5L333.6,81.5L333.6,12.2Z" style="fill:rgb(248,248,248);fill-rule:nonzero;"/>
                <path d="M392.9,46.5C392.9,21.4 405.3,11.1 424.5,11.1C444.7,11.1 452.8,22.2 450.6,37.2L434.6,38.6C436.3,27.6 432,23.2 424.2,23.2C416.7,23.2 410.6,28.7 410.6,46.6C410.6,65.5 417.2,70.3 424.7,70.3C431.8,70.3 437.5,65.9 436.3,56.8L451.3,58.3C452.4,72.4 442.3,82.7 423.8,82.7C405,82.8 392.9,71.7 392.9,46.5" style="fill:rgb(248,248,248);fill-rule:nonzero;"/>
                <path d="M454.8,12.2L472,12.2L472,38.4L493,38.4L493,12.2L510.2,12.2L510.2,81.6L493,81.6L493,52.2L472,52.2L472,81.6L454.8,81.6L454.8,12.2Z" style="fill:rgb(248,248,248);fill-rule:nonzero;"/>
                <path d="M517.1,12.2L563,12.2L563,25L534.2,25L534.2,39.9L558.3,39.9L558.3,52.6L534.2,52.6L534.2,68.8L564,68.8L564,81.6L517.1,81.6L517.1,12.2Z" style="fill:rgb(248,248,248);fill-rule:nonzero;"/>
                <path d="M567.2,12.2L595.9,12.2C609.5,12.2 618.6,18.8 618.6,31.5C618.6,41.9 611.5,48.1 604.6,50.3C606.7,52 608.2,54.4 609.4,56.9C612.3,62.8 614.2,69.2 620.3,69.2C621.8,69.2 623.1,68.7 623.1,68.7L621.7,81C621.7,81 618,81.9 614.8,81.9C606.6,81.9 601.9,78.7 597,67.7C594.9,62.8 592.1,54.1 588.3,54.1L584.4,54.1L584.4,81.5L567.2,81.5L567.2,12.2ZM584.4,24.7L584.4,41.7L590.6,41.7C595.5,41.7 601.3,40.2 601.3,32.8C601.3,26.7 597.4,24.7 592.7,24.7L584.4,24.7Z" style="fill:rgb(248,248,248);fill-rule:nonzero;"/>
            </g>
            <g>
                <path d="M625.2,16.6C625.2,12.7 628.1,11 630.8,11C633.5,11 636.4,12.7 636.4,16.6C636.4,20.4 633.5,22.1 630.8,22.1C628.2,22.2 625.2,20.5 625.2,16.6ZM635.1,16.6C635.1,13.5 633.1,12.2 630.9,12.2C628.7,12.2 626.6,13.5 626.6,16.6C626.6,19.6 628.7,21 630.9,21C633.1,21 635.1,19.7 635.1,16.6ZM629,13.8L631,13.8C632,13.8 633,14.1 633,15.5C633,16.3 632.4,16.8 631.7,17L633,19.3L631.8,19.3L630.6,17.1L630.1,17.1L630.1,19.3L629,19.3L629,13.8ZM631.1,16.3C631.6,16.3 632,16 632,15.5C632,14.9 631.5,14.8 631.1,14.8L630.1,14.8L630.1,16.3L631.1,16.3Z" style="fill:rgb(248,248,248);fill-rule:nonzero;"/>
            </g>
        </g>
    </g>
</svg>
